<?xml version="1.0"?>
<svg version="1.1" xmlns="http://www.w3.org/2000/svg" width="500" height="200px" style="border: dashed 2px #aaa"><path fill="#5c6f7d" d="M56.21923828125,134.177734375l-10.9658203125,0l-17.701171875-30.7822265625l-0.25048828125,0q0.52880859375,8.15478515625,0.52880859375,11.6337890625l0,19.1484375l-7.70947265625,0l0-40.6904296875l10.88232421875,0l17.67333984375,30.47607421875l0.19482421875,0q-0.41748046875-7.93212890625-0.41748046875-11.21630859375l0-19.259765625l7.76513671875,0l0,40.6904296875z M76.474555664062,118.56396484375q0,4.6201171875,1.516845703125,6.98583984375t4.940185546875,2.36572265625q3.3955078125,0,4.884521484375-2.351806640625t1.489013671875-6.999755859375q0-4.6201171875-1.5029296875-6.93017578125t-4.92626953125-2.31005859375q-3.3955078125,0-4.8984375,2.296142578125t-1.5029296875,6.944091796875z M97.988715820313,118.56396484375q0,7.59814453125-4.0078125,11.88427734375t-11.16064453125,4.2861328125q-4.48095703125,0-7.904296875-1.962158203125t-5.26025390625-5.635986328125t-1.8369140625-8.572265625q0-7.6259765625,3.97998046875-11.8564453125t11.1884765625-4.23046875q4.48095703125,0,7.904296875,1.9482421875t5.26025390625,5.59423828125t1.8369140625,8.54443359375z M116.32362304687,134.177734375l-11.8564453125-31.1162109375l8.87841796875,0l6.01171875,17.72900390625q1.001953125,3.36767578125,1.25244140625,6.37353515625l0.1669921875,0q0.13916015625-2.671875,1.25244140625-6.37353515625l5.98388671875-17.72900390625l8.87841796875,0l-11.8564453125,31.1162109375l-8.71142578125,0z M165.02327636719,134.177734375l-1.64208984375-4.23046875l-0.22265625,0q-2.14306640625,2.69970703125-4.411376953125,3.743408203125t-5.914306640625,1.043701171875q-4.48095703125,0-7.055419921875-2.560546875t-2.574462890625-7.2919921875q0-4.9541015625,3.465087890625-7.305908203125t10.450927734375-2.602294921875l5.3994140625-0.1669921875l0-1.36376953125q0-4.7314453125-4.8427734375-4.7314453125q-3.7294921875,0-8.76708984375,2.25439453125l-2.81103515625-5.7333984375q5.37158203125-2.81103515625,11.912109375-2.81103515625q6.26220703125,0,9.60205078125,2.7275390625t3.33984375,8.2939453125l0,20.73486328125l-5.92822265625,0z M162.51839355469,119.7607421875l-3.2841796875,0.111328125q-3.70166015625,0.111328125-5.5107421875,1.3359375t-1.80908203125,3.7294921875q0,3.59033203125,4.119140625,3.59033203125q2.9501953125,0,4.717529296875-1.69775390625t1.767333984375-4.5087890625l0-2.560546875z M209.18630859375,134.177734375l-2.3935546875-10.88232421875l-3.228515625-13.7490234375l-0.19482421875,0l-5.677734375,24.63134765625l-9.12890625,0l-8.8505859375-31.1162109375l8.4609375,0l3.59033203125,13.77685546875q0.86279296875,3.70166015625,1.75341796875,10.21435546875l0.1669921875,0q0.111328125-2.115234375,0.97412109375-6.70751953125l0.4453125-2.36572265625l3.8408203125-14.91796875l9.3515625,0l3.64599609375,14.91796875q0.111328125,0.6123046875,0.347900390625,1.80908203125t0.459228515625,2.546630859375t0.403564453125,2.64404296875t0.208740234375,2.073486328125l0.1669921875,0q0.25048828125-2.00390625,0.890625-5.496826171875t0.91845703125-4.717529296875l3.7294921875-13.77685546875l8.32177734375,0l-8.9619140625,31.1162109375l-9.240234375,0z M256.07687988281,134.177734375l-1.64208984375-4.23046875l-0.22265625,0q-2.14306640625,2.69970703125-4.411376953125,3.743408203125t-5.914306640625,1.043701171875q-4.48095703125,0-7.055419921875-2.560546875t-2.574462890625-7.2919921875q0-4.9541015625,3.465087890625-7.305908203125t10.450927734375-2.602294921875l5.3994140625-0.1669921875l0-1.36376953125q0-4.7314453125-4.8427734375-4.7314453125q-3.7294921875,0-8.76708984375,2.25439453125l-2.81103515625-5.7333984375q5.37158203125-2.81103515625,11.912109375-2.81103515625q6.26220703125,0,9.60205078125,2.7275390625t3.33984375,8.2939453125l0,20.73486328125l-5.92822265625,0z M253.57199707031,119.7607421875l-3.2841796875,0.111328125q-3.70166015625,0.111328125-5.5107421875,1.3359375t-1.80908203125,3.7294921875q0,3.59033203125,4.119140625,3.59033203125q2.9501953125,0,4.717529296875-1.69775390625t1.767333984375-4.5087890625l0-2.560546875z M287.77116210938,127.97119140625q2.2265625,0,5.34375-0.97412109375l0,6.31787109375q-3.1728515625,1.41943359375-7.79296875,1.41943359375q-5.09326171875,0-7.417236328125-2.574462890625t-2.323974609375-7.723388671875l0-15.00146484375l-4.0634765625,0l0-3.59033203125l4.67578125-2.8388671875l2.44921875-6.568359375l5.42724609375,0l0,6.6240234375l8.71142578125,0l0,6.37353515625l-8.71142578125,0l0,15.00146484375q0,1.80908203125,1.015869140625,2.671875t2.685791015625,0.86279296875z M315.95860839844,134.734375q-14.5283203125,0-14.5283203125-15.94775390625q0-7.93212890625,3.9521484375-12.120849609375t11.32763671875-4.188720703125q5.3994140625,0,9.685546875,2.115234375l-2.5048828125,6.568359375q-2.00390625-0.80712890625-3.7294921875-1.322021484375t-3.451171875-0.514892578125q-6.6240234375,0-6.6240234375,9.4072265625q0,9.12890625,6.6240234375,9.12890625q2.44921875,0,4.53662109375-0.654052734375t4.1748046875-2.045654296875l0,7.26416015625q-2.0595703125,1.30810546875-4.160888671875,1.80908203125t-5.302001953125,0.5009765625z M365.27056640625,134.177734375l-8.48876953125,0l0-18.17431640625q0-6.7353515625-5.009765625-6.7353515625q-3.5625,0-5.14892578125,2.42138671875t-1.58642578125,7.8486328125l0,14.6396484375l-8.48876953125,0l0-43.306640625l8.48876953125,0l0,8.82275390625q0,1.02978515625-0.19482421875,4.8427734375l-0.19482421875,2.5048828125l0.4453125,0q2.8388671875-4.564453125,9.017578125-4.564453125q5.48291015625,0,8.32177734375,2.9501953125t2.8388671875,8.4609375l0,20.28955078125z"/><path fill="#" d=""/></svg>
